HIERARCHY
ROOT Hips
{
	OFFSET -0.001795 -0.223333 0.028219
	CHANNELS 6 Xposition Yposition Zposition Zrotation Yrotation Xrotation 
	JOINT LeftUpLeg
	{
		OFFSET 0.069520 -0.091406 -0.006815
		CHANNELS 3 Zrotation Yrotation Xrotation
		JOINT LeftLeg
		{
			OFFSET 0.034277 -0.375199 -0.004496
			CHANNELS 3 Zrotation Yrotation Xrotation
			JOINT LeftFoot
			{
				OFFSET -0.013596 -0.397961 -0.043693
				CHANNELS 3 Zrotation Yrotation Xrotation
				JOINT LeftToe
				{
					OFFSET 0.026358 -0.055791 0.119288
					CHANNELS 3 Zrotation Yrotation Xrotation
					End Site
					{
						OFFSET 0.000000 0.000000 0.000000
					}
				}
			}
		}
	}
	JOINT RightUpLeg
	{
		OFFSET -0.067670 -0.090522 -0.004320
		CHANNELS 3 Zrotation Yrotation Xrotation
		JOINT RightLeg
		{
			OFFSET -0.038290 -0.382569 -0.008850
			CHANNELS 3 Zrotation Yrotation Xrotation
			JOINT RightFoot
			{
				OFFSET 0.015774 -0.398415 -0.042312
				CHANNELS 3 Zrotation Yrotation Xrotation
				JOINT RightToe
				{
					OFFSET -0.025372 -0.048144 0.123348
					CHANNELS 3 Zrotation Yrotation Xrotation
					End Site
					{
						OFFSET 0.000000 0.000000 0.000000
					}
				}
			}
		}
	}
	JOINT Spine
	{
		OFFSET -0.002533 0.108963 -0.026696
		CHANNELS 3 Zrotation Yrotation Xrotation
		JOINT Spine1
		{
			OFFSET 0.005487 0.135180 0.001092
			CHANNELS 3 Zrotation Yrotation Xrotation
			JOINT Spine2
			{
				OFFSET 0.001457 0.052922 0.025425
				CHANNELS 3 Zrotation Yrotation Xrotation
				JOINT Neck
				{
					OFFSET -0.002778 0.213870 -0.042857
					CHANNELS 3 Zrotation Yrotation Xrotation
					JOINT Head
					{
						OFFSET 0.005152 0.064970 0.051349
						CHANNELS 3 Zrotation Yrotation Xrotation
						End Site
						{
							OFFSET 0.000000 0.000000 0.000000
						}
					}
				}
				JOINT LeftShoulder
				{
					OFFSET 0.078845 0.121749 -0.034090
					CHANNELS 3 Zrotation Yrotation Xrotation
					JOINT LeftArm
					{
						OFFSET 0.090977 0.030469 -0.008868
						CHANNELS 3 Zrotation Yrotation Xrotation
						JOINT LeftForeArm
						{
							OFFSET 0.259612 -0.012772 -0.027456
							CHANNELS 3 Zrotation Yrotation Xrotation
							JOINT LeftHand
							{
								OFFSET 0.249234 0.008986 -0.001171
								CHANNELS 3 Zrotation Yrotation Xrotation
								End Site
								{
									OFFSET 0.000000 0.000000 0.000000
								}
							}
						}
					}
				}
				JOINT RightShoulder
				{
					OFFSET -0.081759 0.118833 -0.038615
					CHANNELS 3 Zrotation Yrotation Xrotation
					JOINT RightArm
					{
						OFFSET -0.096012 0.032551 -0.009143
						CHANNELS 3 Zrotation Yrotation Xrotation
						JOINT RightForeArm
						{
							OFFSET -0.253742 -0.013329 -0.021401
							CHANNELS 3 Zrotation Yrotation Xrotation
							JOINT RightHand
							{
								OFFSET -0.255298 0.007772 -0.005559
								CHANNELS 3 Zrotation Yrotation Xrotation
								End Site
								{
									OFFSET 0.000000 0.000000 0.000000
								}
							}
						}
					}
				}
			}
		}
	}
}
MOTION
Frames: 13
Frame Time: 0.050000
-0.459466 0.931129 0.141081 -0.138707 31.957702 11.850941 5.678074 -2.272075 -20.939033 -4.076694 -1.383434 21.403927 9.139275 16.528987 -1.506602 0.000000 0.000000 0.000000 0.168962 0.612226 -26.377634 -4.062522 0.256670 21.397171 4.621870 10.406713 1.955916 0.000000 0.000000 0.000000 4.549102 -2.794208 18.222307 1.497919 -0.679244 -1.229890 4.775823 -0.390396 7.527244 1.391892 2.609336 -23.728136 0.000000 0.000000 0.000000 -20.231076 -19.661435 4.621366 -49.131891 -16.775987 1.718184 7.343272 -39.001465 -2.498256 0.000000 0.000000 0.000000 17.308817 21.130612 14.175457 47.154422 30.878472 6.614887 -17.140762 21.248276 -1.631313 0.000000 0.000000 0.000000 
-0.461094 0.934458 0.141444 -0.491631 31.727440 11.665180 5.408208 -2.125710 -19.914980 -2.604362 -1.144196 17.325275 9.194677 18.043146 2.571065 0.000000 0.000000 0.000000 0.423860 0.771531 -25.105093 -3.682157 0.317261 19.006720 4.660582 10.263507 2.833950 0.000000 0.000000 0.000000 4.088443 -2.379388 16.701944 1.073289 -0.461834 -1.449530 4.347625 -1.003420 8.273630 0.539971 2.917897 -22.707441 0.000000 0.000000 0.000000 -19.764459 -19.547520 4.743403 -49.665419 -17.185388 1.734417 7.738901 -42.046280 -2.873076 0.000000 0.000000 0.000000 17.896705 20.321265 13.792535 48.574267 30.122621 6.503150 -16.861645 25.640393 -1.936299 0.000000 0.000000 0.000000 
-0.462423 0.936156 0.141365 -0.860156 31.359167 11.050074 5.397365 -1.889475 -18.324808 -1.707642 -0.892572 13.943751 9.334441 18.987062 5.194471 0.000000 0.000000 0.000000 0.733071 0.919639 -23.993279 -3.485382 0.355489 17.684539 4.772365 10.373035 3.339466 0.000000 0.000000 0.000000 3.673294 -2.096769 15.741288 0.546051 -0.267591 -1.145658 3.934883 -1.571805 8.467354 -0.229066 3.243241 -22.648973 0.000000 0.000000 0.000000 -20.473244 -19.255134 4.716236 -48.959784 -17.707391 1.929803 8.736344 -45.516560 -3.540362 0.000000 0.000000 0.000000 18.232531 19.949219 13.488587 51.036990 29.419887 6.733716 -17.747092 30.557255 -2.482049 0.000000 0.000000 0.000000 
-0.463497 0.937403 0.141096 -1.045997 31.342339 10.707767 5.246280 -1.723221 -17.030181 -0.898572 -0.698102 10.956890 9.377511 19.567666 7.321605 0.000000 0.000000 0.000000 0.778361 0.968143 -23.018442 -3.134752 0.328770 16.336997 4.752726 10.247057 3.685763 0.000000 0.000000 0.000000 3.155696 -1.752845 14.349319 0.435477 -0.216385 -1.152173 3.338105 -1.802656 9.397039 -0.631277 3.414856 -21.770886 0.000000 0.000000 0.000000 -20.276598 -19.538599 4.862627 -49.134688 -18.714667 2.249535 10.937853 -49.177120 -4.969872 0.000000 0.000000 0.000000 19.383170 19.511094 13.614129 51.976492 29.118291 6.622126 -17.919657 34.931561 -2.829676 0.000000 0.000000 0.000000 
-0.464349 0.937304 0.140713 -1.183509 31.293746 10.216794 5.301827 -1.567213 -15.808727 -0.721412 -0.587801 9.577606 9.301646 19.303726 7.126197 0.000000 0.000000 0.000000 0.808667 1.007628 -22.068337 -2.877789 0.305639 15.389927 4.706981 10.191830 3.587407 0.000000 0.000000 0.000000 2.876055 -1.581388 13.633552 0.146366 -0.134061 -0.788795 3.148906 -1.893353 9.286727 -1.171560 3.674858 -21.505413 0.000000 0.000000 0.000000 -20.887297 -19.475955 4.790622 -48.512894 -19.420572 2.570902 12.879255 -53.252369 -6.516441 0.000000 0.000000 0.000000 20.010404 19.783670 13.934167 53.006572 29.131424 6.816036 -17.451151 37.515255 -2.882809 0.000000 0.000000 0.000000 
-0.465024 0.937381 0.140289 -1.243237 31.333797 9.933930 5.319651 -1.445208 -14.750991 -0.598819 -0.474382 8.121727 9.166228 19.002866 7.042676 0.000000 0.000000 0.000000 0.711540 1.009827 -21.047713 -2.530391 0.275531 14.007749 4.631492 10.055654 3.562113 0.000000 0.000000 0.000000 2.452813 -1.379767 12.797912 -0.063028 -0.058404 -0.653146 2.960091 -1.763387 9.738662 -1.248175 3.782810 -21.796095 0.000000 0.000000 0.000000 -20.580738 -19.825622 4.897052 -48.543349 -20.981103 3.156289 15.771564 -56.106598 -8.629575 0.000000 0.000000 0.000000 20.383706 19.956469 14.243230 53.291780 29.828644 7.145945 -16.238455 39.631990 -2.627829 0.000000 0.000000 0.000000 
-0.465457 0.937448 0.139733 -1.353298 31.531380 9.414686 5.503146 -1.358953 -13.967503 -0.723129 -0.411119 7.492936 9.030451 18.701625 6.894246 0.000000 0.000000 0.000000 0.640669 0.999106 -20.340177 -2.188681 0.193349 13.612240 4.549479 9.880101 3.561443 0.000000 0.000000 0.000000 2.067216 -1.262133 12.439450 -0.114779 -0.054295 -0.491031 2.782642 -1.464271 9.721562 -1.507037 4.000626 -22.126754 0.000000 0.000000 0.000000 -20.506304 -19.948276 4.791173 -48.258908 -22.336150 3.715068 17.498576 -59.019283 -10.358226 0.000000 0.000000 0.000000 20.592767 20.384522 14.683756 53.558532 30.444854 7.497629 -14.548493 40.453058 -2.132955 0.000000 0.000000 0.000000 
-0.465670 0.937522 0.139131 -1.493053 31.941501 8.975561 5.433960 -1.294620 -13.321608 -0.337323 -0.404679 6.871940 8.775204 18.221188 6.709221 0.000000 0.000000 0.000000 0.644984 0.995371 -19.500580 -1.937150 0.149320 12.843074 4.366628 9.497791 3.557043 0.000000 0.000000 0.000000 1.801916 -1.173965 12.094744 -0.200374 -0.008186 -0.542231 2.662124 -1.294389 10.035885 -1.530781 4.080822 -22.112555 0.000000 0.000000 0.000000 -20.146187 -20.392427 4.890783 -48.507055 -23.794244 4.293442 18.767154 -60.722972 -11.642996 0.000000 0.000000 0.000000 20.571699 20.820142 15.079140 53.930295 31.326873 8.010915 -13.807145 40.920948 -1.900185 0.000000 0.000000 0.000000 
-0.465604 0.937548 0.138320 -1.461291 32.564961 8.693040 5.423422 -1.273798 -13.065552 -0.349393 -0.394738 6.713743 8.462289 17.663244 6.472920 0.000000 0.000000 0.000000 0.440769 0.945039 -18.763006 -1.630133 0.082766 12.161030 4.106273 8.960490 3.499424 0.000000 0.000000 0.000000 1.634737 -1.140208 12.001228 -0.248904 -0.009961 -0.388894 2.667390 -1.225449 9.849856 -1.582742 4.120882 -21.670499 0.000000 0.000000 0.000000 -20.248781 -20.802705 4.980791 -48.375888 -24.737476 4.708792 18.974767 -62.000874 -12.183271 0.000000 0.000000 0.000000 20.402604 21.328107 15.409358 54.006290 31.999965 8.413650 -13.612968 40.433812 -1.853092 0.000000 0.000000 0.000000 
-0.465460 0.938079 0.137315 -1.460187 33.143695 8.479853 5.425023 -1.262931 -12.906761 -0.357318 -0.384860 6.553806 8.133435 17.143909 6.399044 0.000000 0.000000 0.000000 0.217298 0.890346 -18.263775 -1.270142 -0.004947 11.699051 3.902712 8.486177 3.677597 0.000000 0.000000 0.000000 1.435914 -1.108806 11.953399 -0.339024 0.012447 -0.281764 2.707572 -0.961283 9.726098 -1.074820 3.846021 -20.715149 0.000000 0.000000 0.000000 -19.703135 -21.038178 4.964661 -48.767823 -26.072793 5.270595 19.359630 -62.788434 -12.796791 0.000000 0.000000 0.000000 19.933874 21.530913 15.504079 53.920336 32.722450 8.827097 -13.978177 39.732738 -1.960957 0.000000 0.000000 0.000000 
-0.465286 0.938818 0.135928 -1.528413 33.354363 8.270823 5.305330 -1.250625 -12.787838 -0.120829 -0.402758 6.476307 7.959052 16.913490 6.481395 0.000000 0.000000 0.000000 0.161287 0.876795 -17.940314 -1.146659 -0.025403 11.359227 3.846857 8.301411 3.990824 0.000000 0.000000 0.000000 1.275183 -1.085163 11.950680 -0.352157 -0.014553 -0.050794 2.692445 -0.547698 9.510038 -0.828706 3.685381 -19.765344 0.000000 0.000000 0.000000 -19.161883 -21.212875 4.944080 -49.192778 -26.942731 5.657332 18.710874 -64.079132 -12.889122 0.000000 0.000000 0.000000 19.417456 21.827381 15.613808 53.696747 33.663666 9.333592 -14.534285 38.642329 -2.120018 0.000000 0.000000 0.000000 
-0.465135 0.939330 0.134347 -1.767196 33.532819 7.901255 5.367406 -1.222335 -12.506154 0.056392 -0.401264 6.240060 7.832096 16.706147 6.478571 0.000000 0.000000 0.000000 0.208101 0.882935 -17.633722 -0.947716 -0.071582 11.153175 3.807680 8.155607 4.291762 0.000000 0.000000 0.000000 1.276636 -1.102856 12.078960 -0.505627 0.050455 -0.016843 2.731753 -0.301691 9.618803 -0.801643 3.658787 -19.160983 0.000000 0.000000 0.000000 -18.838889 -21.314551 4.934185 -49.297351 -27.588335 5.889818 17.873550 -64.929669 -12.644182 0.000000 0.000000 0.000000 18.908302 21.980370 15.583994 53.737406 34.448892 9.827443 -15.246559 37.350704 -2.301645 0.000000 0.000000 0.000000 
-0.465060 0.939563 0.132531 -1.825165 33.603446 7.930477 5.481975 -1.236980 -12.626480 -0.155418 -0.373132 6.129128 7.792311 16.668696 6.508606 0.000000 0.000000 0.000000 0.170274 0.867621 -17.976836 -0.920957 -0.098082 11.472781 3.816870 8.126693 4.484247 0.000000 0.000000 0.000000 1.205987 -1.107635 12.183130 -0.584071 0.089913 -0.057288 2.754347 -0.096231 9.648299 -0.623521 3.582323 -19.094624 0.000000 0.000000 0.000000 -18.273419 -21.496719 5.001297 -49.663947 -28.383748 6.205539 17.866649 -64.548406 -12.620050 0.000000 0.000000 0.000000 18.441358 22.171482 15.594134 53.613340 35.180090 10.237567 -16.223863 35.860811 -2.514966 0.000000 0.000000 0.000000 
